<?xml version="1.0" encoding="UTF-8" standalone="no"?>
<!-- Created with Inkscape (http://www.inkscape.org/) -->

<svg
   version="1.1"
   id="svg1"
   width="500"
   height="500"
   viewBox="0 0 500 500"
   xmlns="http://www.w3.org/2000/svg"
   xmlns:svg="http://www.w3.org/2000/svg">
  <defs
     id="defs1">
    <clipPath
       clipPathUnits="userSpaceOnUse"
       id="clipPath2">
      <path
         d="M 0,0 H 1562.5 V 1562.5 H 0 Z"
         transform="scale(0.31999999)"
         clip-rule="evenodd"
         id="path2" />
    </clipPath>
    <clipPath
       clipPathUnits="userSpaceOnUse"
       id="clipPath4">
      <path
         d="M 1454.4102,449.22894 1100.6171,1461.0325 106.5127,1113.4282 460.30579,101.62466 Z"
         transform="matrix(-0.01801447,-0.05151911,0.05151911,-0.01801447,5.9748977,85.622541)"
         id="path4" />
    </clipPath>
    <clipPath
       clipPathUnits="userSpaceOnUse"
       id="clipPath5">
      <path
         d="M 0,0 H 1562.5 V 1562.5 H 0 Z"
         transform="scale(0.31999999)"
         id="path5" />
    </clipPath>
    <clipPath
       clipPathUnits="userSpaceOnUse"
       id="clipPath7">
      <path
         d="M 0,0 H 1562.5 V 1562.5 H 0 Z"
         transform="scale(0.31999999)"
         id="path7" />
    </clipPath>
    <clipPath
       clipPathUnits="userSpaceOnUse"
       id="clipPath8">
      <path
         d="M 0,0 H 1562.5 V 1562.5 H 0 Z"
         transform="scale(0.31999999)"
         clip-rule="evenodd"
         id="path8" />
    </clipPath>
  </defs>
  <g
     id="g1">
    <path
       id="path1"
       d="M 0,0 H 500 V 500 H 0 Z"
       style="fill:#ffffff;fill-opacity:1;fill-rule:nonzero;stroke:none"
       clip-path="url(#clipPath2)" />
    <g
       id="g2"
       clip-path="url(#clipPath8)">
      <path
         id="path3"
         d="M 0,0 H 500 V 500 H 0 Z"
         style="fill:#ffffff;fill-opacity:1;fill-rule:nonzero;stroke:none" />
      <g
         id="g7"
         clip-path="url(#clipPath7)">
        <g
           clip-path="url(#clipPath5)"
           id="g6">
          <path
             d="m 52.32,41 5.11,-1.709999 c 0.267319,-0.08551 0.520638,-0.201576 0.759957,-0.348202 0.239315,-0.146625 0.457767,-0.319599 0.655357,-0.518928 0.197586,-0.19933 0.368641,-0.419293 0.513161,-0.65989 C 59.502995,37.522385 59.616837,37.268059 59.700001,37 60.98,32.700001 57.290001,29.77 53.98,30.880001 l -4.310002,1.450001 c -0.08863,0.02975 -0.179321,0.05055 -0.27206,0.06239 -0.09274,0.01184 -0.185742,0.0145 -0.279007,0.008 -0.09327,-0.0065 -0.18499,-0.02212 -0.275177,-0.04677 -0.09018,-0.02465 -0.17709,-0.05788 -0.260712,-0.09969 -0.08362,-0.04181 -0.162346,-0.0914 -0.236179,-0.148762 -0.07383,-0.05736 -0.141331,-0.121388 -0.202515,-0.192082 -0.06118,-0.0707 -0.11486,-0.146692 -0.16103,-0.227989 -0.04617,-0.0813 -0.08394,-0.166324 -0.113319,-0.255083 L 45,22.900002 c -0.02975,-0.08863 -0.05055,-0.179316 -0.06239,-0.272057 -0.01184,-0.09274 -0.0145,-0.185745 -0.008,-0.279011 0.0065,-0.09326 0.02212,-0.18499 0.04676,-0.275177 0.02465,-0.09019 0.05788,-0.17709 0.09969,-0.260713 0.04181,-0.08362 0.0914,-0.162348 0.148762,-0.236178 0.05736,-0.07383 0.121387,-0.141334 0.192085,-0.202516 0.07069,-0.06118 0.146691,-0.114857 0.227986,-0.161028 0.0813,-0.04617 0.166328,-0.08394 0.255085,-0.11332 l 4.310001,-1.44 c 3.290001,-1.100001 4.479999,-5.62 0.939999,-8.29 -0.235531,-0.169665 -0.487923,-0.30872 -0.757184,-0.417162 -0.26926,-0.108443 -0.547584,-0.183128 -0.834964,-0.224057 -0.287377,-0.04093 -0.575478,-0.04692 -0.864304,-0.01796 -0.28883,0.02896 -0.570015,0.09201 -0.843548,0.189179 l -5.049999,1.68 c -0.07419,0.0251 -0.15012,0.0427 -0.227787,0.05281 -0.07766,0.01011 -0.155563,0.01253 -0.233707,0.0073 -0.07814,-0.0053 -0.155014,-0.01814 -0.230618,-0.03859 -0.0756,-0.02045 -0.148479,-0.0481 -0.218624,-0.08294 -0.07015,-0.03484 -0.136208,-0.0762 -0.198185,-0.124086 -0.06198,-0.04788 -0.118675,-0.101363 -0.170094,-0.160443 -0.05142,-0.05908 -0.09656,-0.122614 -0.135433,-0.190606 -0.03887,-0.06799 -0.07072,-0.139129 -0.09555,-0.21341 L 39.710007,7.1000018 c -1.099999,-3.2899999 -5.619999,-4.48 -8.290001,-0.94 -0.169666,0.2355303 -0.30872,0.4879264 -0.41716,0.7571878 -0.108443,0.2692609 -0.183129,0.5475798 -0.224058,0.8349576 -0.04093,0.2873778 -0.04691,0.5754819 -0.01796,0.8643117 0.02896,0.2888288 0.09202,0.5700102 0.189178,0.843543 l 1.679999,5.0000001 c 0.02975,0.08863 0.05055,0.179318 0.06239,0.272058 0.01184,0.09274 0.0145,0.185743 0.008,0.279008 -0.0065,0.09327 -0.02212,0.18499 -0.04676,0.275176 -0.02465,0.09019 -0.05788,0.177092 -0.09969,0.260715 -0.04181,0.08362 -0.0914,0.162349 -0.148758,0.236177 -0.05736,0.07383 -0.121387,0.141335 -0.192081,0.202517 -0.0707,0.06118 -0.146695,0.114859 -0.227992,0.16103 -0.0813,0.04617 -0.166324,0.08394 -0.255081,0.113319 l -9,3 c -0.08863,0.02975 -0.179319,0.05055 -0.272058,0.06239 -0.09274,0.01184 -0.185745,0.0145 -0.279009,0.008 -0.09327,-0.0065 -0.184992,-0.02212 -0.275177,-0.04676 -0.09019,-0.02464 -0.177092,-0.05787 -0.260714,-0.09969 -0.08362,-0.04181 -0.162349,-0.0914 -0.236177,-0.14876 -0.07383,-0.05736 -0.141333,-0.121391 -0.202513,-0.192085 -0.06118,-0.0707 -0.114858,-0.146694 -0.16103,-0.227991 -0.04617,-0.0813 -0.08395,-0.166323 -0.113321,-0.255081 l -1.51,-4.510001 c -1.100001,-3.29 -5.62,-4.4799993 -8.29,-0.94 -0.169666,0.235531 -0.308721,0.487926 -0.417162,0.757187 -0.108442,0.26926 -0.183128,0.547578 -0.224058,0.834956 -0.04093,0.287378 -0.04691,0.575482 -0.01796,0.864311 0.02896,0.28883 0.09201,0.570011 0.189179,0.843545 l 1.76,5.25 c 0.02753,0.07477 0.04735,0.151525 0.05947,0.230274 0.01211,0.07875 0.01628,0.157913 0.01249,0.237498 -0.0038,0.07958 -0.01545,0.157999 -0.03499,0.23524 -0.01954,0.07724 -0.04656,0.151774 -0.08107,0.223587 -0.03451,0.07181 -0.07581,0.139481 -0.123912,0.203 -0.0481,0.06352 -0.102033,0.12162 -0.161803,0.174303 -0.05977,0.05268 -0.124181,0.0989 -0.193232,0.138645 -0.06905,0.03974 -0.141369,0.07223 -0.216947,0.09745 l -5.0799999,1.700001 c -0.2672772,0.101934 -0.5207038,0.231052 -0.7602801,0.387356 -0.2395764,0.156305 -0.4598513,0.336237 -0.6608253,0.539796 -0.200974,0.203562 -0.3780732,0.426121 -0.5312986,0.667677 -0.1532254,0.241556 -0.2790904,0.496613 -0.3775959,0.765171 -1,3.590001 1.4300003,6.209999 4.1900005,6.279999 0.5267086,0.01289 1.0400419,-0.06378 1.5400003,-0.229999 l 4.31,-1.450001 c 0.08863,-0.02976 0.179319,-0.05055 0.272059,-0.06239 0.09274,-0.01184 0.185744,-0.0145 0.279009,-0.008 0.09327,0.0065 0.184989,0.02211 0.275175,0.04676 0.09019,0.02464 0.177091,0.05787 0.260714,0.09969 0.08362,0.04181 0.162348,0.0914 0.236177,0.14876 0.07383,0.05736 0.141334,0.121391 0.202516,0.192089 0.06118,0.07069 0.114856,0.14669 0.161028,0.227985 0.04617,0.0813 0.08394,0.166329 0.113321,0.255085 l 2.89,8.540001 c 0.02975,0.08863 0.05055,0.179318 0.0624,0.272057 0.01184,0.09275 0.0145,0.185749 0.008,0.279011 -0.0065,0.09327 -0.02212,0.184993 -0.04677,0.27518 -0.02464,0.09018 -0.05787,0.17709 -0.09969,0.260712 -0.04181,0.08362 -0.0914,0.16235 -0.148757,0.236179 -0.05736,0.07383 -0.121392,0.141331 -0.192086,0.202511 -0.0707,0.06118 -0.146692,0.114857 -0.227989,0.161026 -0.0813,0.04617 -0.166326,0.08395 -0.255085,0.113324 l -4.860001,1.630001 c -0.267276,0.101932 -0.520703,0.231052 -0.760279,0.387355 -0.239576,0.156304 -0.45985,0.336235 -0.660825,0.539795 -0.200973,0.203564 -0.378073,0.426121 -0.531299,0.667679 -0.153226,0.241554 -0.279091,0.496613 -0.377596,0.765171 -1.0000004,3.59 1.43,6.209999 4.19,6.279999 0.533519,0.01503 1.053518,-0.06164 1.56,-0.23 l 4.53,-1.52 c 0.07419,-0.0251 0.150118,-0.04271 0.227783,-0.05282 0.07766,-0.01011 0.155566,-0.01252 0.233708,-0.0073 0.07814,0.0053 0.155018,0.01814 0.230621,0.03859 0.0756,0.02045 0.148478,0.0481 0.218621,0.08294 0.07014,0.03484 0.136205,0.0762 0.198184,0.124088 0.06198,0.04788 0.118676,0.10136 0.170094,0.160439 0.05142,0.05908 0.09656,0.122612 0.135437,0.190609 0.03887,0.06799 0.07072,0.139129 0.09555,0.213409 l 1.58,4.73 c 0.07312,0.220012 0.162604,0.433155 0.26845,0.639427 0.105845,0.206272 0.226814,0.403255 0.362906,0.590957 0.136091,0.187699 0.285711,0.363911 0.448858,0.528637 0.163149,0.16473 0.337912,0.31604 0.524292,0.453938 0.186378,0.137893 0.382189,0.260753 0.587431,0.36858 0.205244,0.10783 0.417517,0.199363 0.636814,0.274601 0.219297,0.07524 0.44305,0.133297 0.671263,0.174179 0.228212,0.04088 0.458208,0.06411 0.689987,0.06968 0.400446,7.9e-4 0.795286,-0.04586 1.184523,-0.139938 0.389236,-0.09409 0.761793,-0.232926 1.117672,-0.416523 0.355878,-0.183594 0.684951,-0.40672 0.987218,-0.669381 0.302267,-0.262661 0.569128,-0.55738 0.800585,-0.884159 0.17503,-0.23574 0.318878,-0.489177 0.431549,-0.760307 0.112675,-0.271133 0.190811,-0.551876 0.23441,-0.842228 0.0436,-0.290363 0.05136,-0.581676 0.02328,-0.873943 -0.02808,-0.292271 -0.09116,-0.576779 -0.18924,-0.853523 l -1.69,-5 c -0.02975,-0.08864 -0.05055,-0.179322 -0.06239,-0.272061 -0.01184,-0.09274 -0.0145,-0.185741 -0.008,-0.279007 0.0065,-0.09326 0.02211,-0.184986 0.04676,-0.275177 0.02464,-0.09018 0.05787,-0.177086 0.09969,-0.260711 0.04181,-0.08362 0.0914,-0.16235 0.14876,-0.23618 0.05736,-0.07383 0.121389,-0.141331 0.192083,-0.202514 0.0707,-0.06118 0.14669,-0.114857 0.227987,-0.16103 0.0813,-0.04617 0.166329,-0.08394 0.255085,-0.11332 l 9,-3 c 0.08863,-0.02975 0.179318,-0.05055 0.272061,-0.06239 0.09274,-0.01184 0.185741,-0.0145 0.279007,-0.008 0.09326,0.0065 0.184986,0.02211 0.275177,0.04676 0.09018,0.02465 0.177089,0.05788 0.260715,0.09969 0.08362,0.04181 0.16235,0.0914 0.236176,0.148758 0.07382,0.05736 0.141334,0.121388 0.202518,0.192085 0.06118,0.07069 0.114853,0.146691 0.161026,0.227986 0.04617,0.08129 0.08394,0.166324 0.11332,0.255085 l 1.509998,4.509998 c 0.07339,0.219166 0.16304,0.431469 0.268932,0.636917 0.105892,0.205441 0.226803,0.401634 0.362724,0.588574 0.135922,0.186935 0.285279,0.362442 0.448063,0.526516 0.162785,0.164074 0.337109,0.314808 0.522969,0.452202 0.185856,0.137393 0.381088,0.259849 0.585689,0.367359 0.204601,0.107509 0.416195,0.198826 0.634777,0.273948 0.218579,0.07512 0.441597,0.133175 0.669064,0.174164 0.227466,0.04099 0.456726,0.06443 0.687782,0.07032 0.40868,-0.0032 0.810707,-0.05658 1.206089,-0.160003 0.395382,-0.103428 0.772034,-0.253785 1.129948,-0.451077 0.357918,-0.197288 0.686157,-0.435478 0.984714,-0.714565 0.298529,-0.279009 0.558279,-0.59046 0.779219,-0.934279 0.166359,-0.232281 0.302867,-0.480949 0.40953,-0.746006 0.106655,-0.26506 0.180432,-0.538975 0.221329,-0.821747 0.04089,-0.282772 0.04774,-0.566364 0.02054,-0.85078 C 53.484207,48.29705 53.42374,48.019894 53.330002,47.75 L 51.570004,42.5 c -0.02434,-0.07388 -0.04128,-0.149422 -0.0508,-0.226627 -0.0095,-0.0772 -0.01147,-0.154595 -0.0058,-0.232182 0.0057,-0.07758 0.01878,-0.153877 0.03939,-0.228886 0.02061,-0.07501 0.04831,-0.1473 0.0831,-0.216877 0.03479,-0.06958 0.076,-0.135108 0.123642,-0.196601 0.04764,-0.0615 0.1008,-0.117779 0.159477,-0.168847 0.05867,-0.05107 0.121754,-0.09595 0.189236,-0.134651 0.06748,-0.0387 0.138069,-0.07048 0.211781,-0.09533 h -4e-6 z M 38,36.260002 29.810001,39.000004 c -0.115884,0.03924 -0.234485,0.06679 -0.355802,0.08263 -0.121317,0.01584 -0.243014,0.01968 -0.365088,0.0115 -0.122076,-0.0082 -0.242174,-0.0282 -0.360298,-0.06007 -0.118124,-0.03187 -0.231993,-0.07498 -0.341608,-0.129326 -0.109617,-0.05434 -0.212868,-0.118877 -0.309749,-0.193596 -0.09688,-0.07472 -0.185526,-0.158184 -0.265938,-0.250392 -0.08041,-0.09221 -0.151039,-0.191395 -0.211878,-0.297543 -0.06084,-0.106152 -0.110718,-0.21722 -0.149639,-0.333206 l -2.58,-7.73 c -0.03897,-0.114315 -0.06654,-0.231315 -0.08272,-0.351 -0.01618,-0.119688 -0.02065,-0.23981 -0.01343,-0.36037 0.0072,-0.120558 0.02601,-0.239285 0.05636,-0.356184 0.03035,-0.1169 0.0717,-0.229771 0.124036,-0.338616 0.05234,-0.108844 0.114685,-0.211616 0.187045,-0.308317 0.07236,-0.0967 0.153366,-0.18551 0.243022,-0.26643 0.08966,-0.08092 0.186282,-0.152427 0.289868,-0.214525 0.103588,-0.0621 0.212194,-0.113617 0.325817,-0.154558 l 8.189999,-2.75 c 0.115883,-0.03925 0.234481,-0.06679 0.3558,-0.08263 0.121319,-0.01584 0.243016,-0.01967 0.36509,-0.0115 0.12207,0.0082 0.242168,0.02819 0.36029,0.06007 0.118122,0.03187 0.231995,0.07498 0.341614,0.129326 0.109615,0.05434 0.212864,0.118873 0.309746,0.193592 0.09688,0.07472 0.185528,0.158184 0.265941,0.250394 0.08041,0.09221 0.151032,0.191391 0.211872,0.297541 0.06084,0.10615 0.110726,0.21722 0.149647,0.333212 l 2.579998,7.709999 c 0.04124,0.115223 0.07082,0.233364 0.08874,0.354424 0.01792,0.121059 0.02384,0.242702 0.01775,0.364933 -0.0061,0.122226 -0.02407,0.242679 -0.05393,0.361358 -0.02987,0.118679 -0.07104,0.233292 -0.123527,0.343846 -0.05249,0.110546 -0.115281,0.214901 -0.188366,0.313064 -0.07309,0.09816 -0.155064,0.188221 -0.24593,0.270203 -0.09087,0.08197 -0.18887,0.154278 -0.294006,0.216911 -0.105137,0.06263 -0.215378,0.114388 -0.330731,0.155262 H 38 Z"
             style="fill:#000101;fill-opacity:1;fill-rule:nonzero;stroke:none"
             transform="matrix(-1.9352579,5.5345934,-5.5345934,-1.9352579,485.44892,132.63307)"
             clip-path="url(#clipPath4)"
             id="path6" />
        </g>
      </g>
    </g>
    <g
       id="g8">
      <path
         id="path9"
         d="M 25.936842,32.54207 H 349.06314 V 358.53792 H 25.936842 Z"
         style="fill:#000000;fill-opacity:0;fill-rule:nonzero;stroke:none"
         transform="matrix(1.3333333,0,0,-1.3333333,0,510.71997)" />
    </g>
  </g>
</svg>
