<?xml version="1.0" encoding="utf-8"?>
<!DOCTYPE svg PUBLIC "-//W3C//DTD SVG 20010904//EN" "http://www.w3.org/TR/2001/REC-SVG-20010904/DTD/svg10.dtd">
<svg version="1.0" xmlns="http://www.w3.org/2000/svg" width="502pt" height="502pt" viewBox="0 0 502 502" style="" preserveAspectRatio="xMidYMid meet">
<g fill="#000101FF" stroke="#000101FF">
<path d="M 178.346 100.086 C 172.141 102.472 165.976 108.778 163.707 115.059 C 162.592 118.147 161.902 124.912 161.444 137.262 C 160.580 160.522 162.053 159.135 138.593 158.768 C 118.585 158.454 114.134 159.369 107.574 165.144 C 101.366 170.609 98.570 176.835 98.661 184.991 C 98.781 195.777 103.466 204.082 111.723 208.148 C 116.117 210.311 118.091 210.540 136.340 211.000 C 155.700 211.488 156.227 211.557 158.090 213.861 C 159.871 216.062 160.000 218.160 159.994 244.861 C 159.991 261.483 159.555 275.061 158.956 277.221 C 157.187 283.589 155.789 284.000 135.903 284.000 C 116.322 284.000 112.627 284.751 105.867 290.106 C 91.928 301.145 94.919 326.632 111.000 333.851 C 113.650 335.041 119.409 335.554 134.717 335.961 C 152.386 336.432 155.158 336.726 156.717 338.294 C 158.322 339.910 158.466 341.879 158.161 358.058 C 157.760 379.343 158.932 384.977 164.840 390.165 C 179.480 403.018 200.774 399.368 208.051 382.757 C 210.058 378.174 210.399 375.512 210.710 362.000 C 210.907 353.475 211.304 345.003 211.593 343.174 C 212.488 337.518 215.234 336.993 243.718 337.044 C 257.348 337.068 270.509 337.475 272.964 337.948 C 280.552 339.412 281.000 340.639 281.000 359.929 C 281.000 379.216 282.094 384.414 287.480 390.706 C 296.900 401.711 314.011 402.491 325.886 392.455 C 331.692 387.548 332.368 384.706 332.973 362.654 C 333.674 337.115 331.859 339.000 355.745 339.000 C 374.169 339.000 378.820 338.266 385.143 334.361 C 400.563 324.836 399.564 298.005 383.492 290.020 C 378.827 287.702 377.208 287.505 358.778 287.020 C 339.905 286.522 338.957 286.401 336.778 284.212 L 334.500 281.924 334.848 251.223 C 335.211 219.182 335.592 216.298 339.713 214.434 C 340.696 213.989 349.825 213.597 360.000 213.563 C 380.772 213.492 384.390 212.585 390.650 205.876 C 396.144 199.988 398.003 195.330 397.978 187.515 C 397.954 179.797 396.155 174.686 391.536 169.214 C 386.235 162.935 382.347 162.048 359.500 161.906 C 343.500 161.807 338.578 160.949 336.992 157.986 C 336.435 156.945 336.000 147.762 336.000 137.055 C 336.000 115.430 335.051 111.661 328.182 105.999 C 320.781 99.898 307.583 98.087 299.397 102.050 C 293.955 104.684 287.483 111.716 285.963 116.645 C 285.310 118.765 284.436 128.600 284.021 138.500 C 283.606 148.400 283.206 156.602 283.133 156.727 C 283.060 156.852 281.794 157.744 280.320 158.710 C 277.892 160.301 274.993 160.436 249.570 160.140 C 218.898 159.784 215.819 159.284 213.946 154.357 C 213.325 152.725 213.007 144.315 213.158 133.559 C 213.381 117.747 213.184 115.029 211.576 111.717 C 208.924 106.250 202.876 101.509 196.146 99.621 C 188.710 97.535 184.709 97.639 178.346 100.086 M 278.202 214.500 C 283.129 218.146 283.347 219.857 282.744 250.104 C 282.132 280.814 282.017 281.389 275.834 284.586 C 273.103 285.998 269.295 286.161 247.093 285.820 C 219.163 285.389 215.555 284.708 213.139 279.405 C 211.576 275.975 211.569 223.535 213.131 219.055 C 213.753 217.271 215.665 214.941 217.381 213.877 C 220.299 212.067 222.276 211.960 248.000 212.221 C 273.689 212.482 275.678 212.632 278.202 214.500 "/></g>
</svg>
